<!-- icon666.com - MILLIONS vector ICONS FREE --><svg version="1.1" id="Capa_1" xmlns="http://www.w3.org/2000/svg" xmlns:xlink="http://www.w3.org/1999/xlink" x="0px" y="0px" viewBox="0 0 511.999 511.999" style="enable-background:new 0 0 511.999 511.999;" xml:space="preserve"><path style="fill:#DADADA;" d="M441.199,437.88H70.8c-7.819,0-14.155,6.338-14.155,14.154v21.155h398.709v-21.155 C455.355,444.217,449.017,437.88,441.199,437.88z"></path><g><path style="fill:#C0C0C0;" d="M95.802,437.88H70.8c-7.819,0-14.155,6.338-14.155,14.154v21.155h25.002v-21.155 C81.647,444.217,87.984,437.88,95.802,437.88z"></path><path style="fill:#C0C0C0;" d="M53.361,205.866h405.276L266.688,11.917c-5.902-5.901-15.476-5.901-21.378,0L53.361,205.866z"></path></g><path style="fill:#E6E7E8;" d="M99.695,205.866h312.608L264.244,55.808c-4.553-4.553-11.937-4.553-16.489,0L99.695,205.866z"></path><path style="fill:#A9A9AA;" d="M266.688,11.917c-5.902-5.901-15.476-5.901-21.378,0L53.361,205.866h45.334L278.667,24.02 L266.688,11.917z"></path><path style="fill:#DADADA;" d="M264.244,55.808c-4.553-4.553-11.937-4.553-16.489,0L99.695,205.866h45.334L278.667,70.425 L264.244,55.808z"></path><g><path style="fill:#989898;" d="M477.837,220.521c0-9.196-7.457-16.654-16.656-16.654H50.817c-9.197,0-16.654,7.459-16.654,16.654 c0,9.199,7.458,16.656,16.654,16.656h410.364C470.381,237.177,477.837,229.72,477.837,220.521z"></path><path style="fill:#989898;" d="M477.837,487.844c0-9.198-7.457-16.655-16.656-16.655H50.817c-9.197,0-16.654,7.458-16.654,16.655 c0,9.197,7.458,16.654,16.654,16.654h410.364C470.381,504.5,477.837,497.042,477.837,487.844z"></path></g><g><path style="fill:#818182;" d="M461.181,221.282H50.817c-6.318,0-11.817-3.521-14.639-8.708 c-5.984,10.999,1.959,24.604,14.639,24.604h410.364c12.694,0,20.619-13.616,14.641-24.604 C472.999,217.761,467.501,221.282,461.181,221.282z"></path><path style="fill:#818182;" d="M461.181,488.603H50.817c-6.318,0-11.817-3.521-14.639-8.707 c-5.985,10.998,1.959,24.603,14.639,24.603h410.364c12.693,0,20.62-13.616,14.641-24.603 C472.999,485.083,467.501,488.603,461.181,488.603z"></path></g><circle style="fill:#989898;" cx="255.997" cy="145.42" r="24.572"></circle><path style="fill:#818182;" d="M253.911,120.944c-12.594,1.061-22.484,11.611-22.484,24.479c0,24.793,32.752,33.938,45.607,12.708 C256.751,159.84,243.695,137.815,253.911,120.944z"></path><g><rect x="390.336" y="265.548" style="fill:#E6E7E8;" width="33.312" height="145.48"></rect><rect x="289.669" y="265.548" style="fill:#E6E7E8;" width="33.312" height="145.48"></rect><rect x="189.012" y="265.548" style="fill:#E6E7E8;" width="33.312" height="145.48"></rect><rect x="88.356" y="265.548" style="fill:#E6E7E8;" width="33.312" height="145.48"></rect></g><g><rect x="88.356" y="265.548" style="fill:#DADADA;" width="16.654" height="145.48"></rect><rect x="189.012" y="265.548" style="fill:#DADADA;" width="16.654" height="145.48"></rect><rect x="289.669" y="265.548" style="fill:#DADADA;" width="16.654" height="145.48"></rect><rect x="390.336" y="265.548" style="fill:#DADADA;" width="16.654" height="145.48"></rect></g><path d="M50.816,244.678h61.173c4.142,0,7.501-3.358,7.501-7.501c0-4.142-3.358-7.501-7.501-7.501H50.816 c-5.047,0-9.154-4.107-9.154-9.156c0-5.047,4.106-9.154,9.154-9.154h2.544c22.098,0,353.755,0,358.943,0c16.361,0,32.617,0,48.877,0 c5.048,0,9.156,4.106,9.156,9.154c0,5.048-4.107,9.156-9.156,9.156H138.658c-4.142,0-7.501,3.358-7.501,7.501 c0,4.142,3.358,7.501,7.501,7.501H461.18c13.32,0,24.157-10.837,24.157-24.157c0-13.126-10.526-23.832-23.58-24.141L356.68,91.302 c-2.93-2.929-7.679-2.929-10.608,0c-2.929,2.929-2.929,7.679,0,10.607l94.456,94.456H415.41L269.547,50.503 c-7.472-7.472-19.626-7.472-27.097,0L96.588,196.365h-25.12L250.613,17.22c2.97-2.97,7.803-2.968,10.772,0l66.193,66.193 c2.93,2.928,7.679,2.93,10.608,0c2.929-2.929,2.929-7.679,0-10.607L271.991,6.612c-8.817-8.817-23.167-8.817-31.985,0L50.239,196.38 c-13.053,0.309-23.578,11.015-23.578,24.141C26.661,233.841,37.497,244.678,50.816,244.678z M253.057,61.111 c1.622-1.622,4.261-1.621,5.881,0l135.256,135.255H117.803L253.057,61.111z"></path><path d="M462.854,463.753v-11.72c0-11.94-9.715-21.654-21.655-21.654H70.8c-11.941,0-21.655,9.715-21.655,21.654v11.72 c-12.542,0.862-22.483,11.335-22.483,24.092c0,13.319,10.836,24.155,24.155,24.155h410.364c13.32,0,24.157-10.836,24.157-24.155 C485.338,475.089,475.396,464.617,462.854,463.753z M461.18,496.999H50.816c-5.047,0-9.154-4.106-9.154-9.154 c0-5.048,4.106-9.155,9.154-9.155h323.858c4.143,0,7.5-3.357,7.5-7.501c0-4.143-3.357-7.5-7.5-7.5H64.145v-11.655 c0-3.669,2.985-6.653,6.654-6.653h370.398c3.669,0,6.654,2.984,6.654,6.653v11.655h-47.844c-4.143,0-7.5,3.357-7.5,7.5 c0,4.143,3.357,7.501,7.5,7.501h61.171c5.048,0,9.156,4.106,9.156,9.155C470.337,492.892,466.228,496.999,461.18,496.999z"></path><path d="M255.999,113.35c-17.685,0-32.073,14.388-32.073,32.073s14.388,32.072,32.073,32.072c17.684,0,32.071-14.388,32.071-32.072 C288.071,127.738,273.683,113.35,255.999,113.35z M255.999,162.494c-9.414,0-17.072-7.659-17.072-17.071 c0-9.414,7.659-17.072,17.072-17.072c9.413,0,17.07,7.659,17.07,17.072C273.07,154.836,265.412,162.494,255.999,162.494z"></path><path d="M134.892,273.045c4.142,0,7.501-3.357,7.501-7.501c0-4.143-3.358-7.5-7.501-7.5c-11.201,0-45.394,0-59.766,0 c-4.142,0-7.501,3.357-7.501,7.5c0,4.143,3.358,7.501,7.501,7.501h5.729v130.484h-5.729c-4.142,0-7.501,3.357-7.501,7.501 c0,4.143,3.358,7.5,7.501,7.5c11.202,0,45.393,0,59.766,0c4.142,0,7.501-3.357,7.501-7.5c0-4.143-3.358-7.501-7.501-7.501h-5.727 V273.045H134.892z M114.163,403.529H95.855V273.045h18.308V403.529z"></path><path d="M235.553,273.045c4.142,0,7.501-3.357,7.501-7.501c0-4.143-3.358-7.5-7.501-7.5c-10.89,0-35.781,0-46.539,0h-13.228 c-4.142,0-7.501,3.357-7.501,7.5c0,4.143,3.358,7.501,7.501,7.501h5.727v130.484h-5.727c-4.142,0-7.501,3.357-7.501,7.501 c0,4.143,3.358,7.5,7.501,7.5c11.2,0,45.379,0,59.767,0c4.142,0,7.501-3.357,7.501-7.5c0-4.143-3.358-7.501-7.501-7.501h-5.729 V273.045H235.553z M214.822,403.529h-18.309V273.045h18.309V403.529z"></path><path d="M336.21,273.045c4.143,0,7.501-3.357,7.501-7.501c0-4.143-3.357-7.5-7.501-7.5c-11.2,0-45.379,0-59.767,0 c-4.143,0-7.5,3.357-7.5,7.5c0,4.143,3.357,7.501,7.5,7.501h5.729v130.484h-5.729c-4.143,0-7.5,3.357-7.5,7.501 c0,4.143,3.357,7.5,7.5,7.5h13.23c10.794,0,35.693,0,46.537,0c4.143,0,7.501-3.357,7.501-7.5c0-4.143-3.357-7.501-7.501-7.501 h-5.727V273.045H336.21z M315.483,403.529h-18.309V273.045h18.309V403.529z"></path><path d="M436.873,273.045c4.143,0,7.501-3.357,7.501-7.501c0-4.143-3.357-7.5-7.501-7.5h-13.231c-10.792,0-35.691,0-46.536,0 c-4.143,0-7.501,3.357-7.501,7.5c0,4.143,3.357,7.501,7.501,7.501h5.727v130.484h-5.727c-4.143,0-7.501,3.357-7.501,7.501 c0,4.143,3.357,7.5,7.501,7.5c11.201,0,45.396,0,59.768,0c4.143,0,7.501-3.357,7.501-7.5c0-4.143-3.357-7.501-7.501-7.501h-5.73 V273.045H436.873z M416.141,403.529h-18.308V273.045h18.308V403.529z"></path></svg>